<?xml version="1.0" encoding="UTF-8"?>
<svg id="Camada_2" data-name="Camada 2" xmlns="http://www.w3.org/2000/svg" viewBox="0 0 370.15 68.71">
  <defs>
    <style>
      .cls-1 {
        fill: #03aba5;
      }

      .cls-2 {
        fill: #fdad00;
      }

      .cls-3 {
        fill: #fead00;
      }

      .cls-4 {
        fill: #545454;
      }

      .cls-5 {
        fill: #04aba4;
      }

      .cls-6 {
        fill: #00aba7;
      }
    </style>
  </defs>
  <g id="Camada_1-2" data-name="Camada 1">
    <g>
      <path class="cls-1" d="M228.23,35.52c-.54,.18-.38,.74-.48,1.08-1.69,6.03-3.33,12.08-4.96,18.12-.85,3.16-1.71,6.31-2.5,9.48-.27,1.09-.67,1.78-1.96,1.56-.37-.06-.88-.24-1.21,.22-1.08-.03-2.15-.08-3.23-.07-.59,0-.85-.11-1.02-.8-3.71-14.82-7.48-29.63-11.23-44.44q-.32-2.19,2.02-2.19c1.08,0,2.16,.07,3.23-.02,.83-.07,1.13,.23,1.31,1.01,1.12,4.89,2.37,9.74,3.41,14.64,1.25,5.85,2.88,11.62,3.9,17.53,0,.02,.07,.06,.09,.05,.06-.03,.11-.07,.16-.11,.27,1.41,.53,2.82,.82,4.23,.06,.27-.15,.75,.32,.77,.51,.02,.29-.47,.35-.74,1.64-7.15,3.52-14.24,5.44-21.32,1.25-4.6,2.39-9.23,3.57-13.84,.06-.05,.16-.08,.18-.14q.75-2.06,2.91-2.06c1.08,0,2.16,.08,3.23-.02,.94-.09,1.19,.35,1.37,1.13,1.4,5.9,2.85,11.8,4.23,17.7,1.03,4.39,1.97,8.81,2.96,13.21,.06,.26,.21,.49,.32,.73,0,.02,.06,.03,.09,.02,.04-.01,.06-.05,.09-.07,.02,1.86,.43,3.65,.99,5.41,.22-.34,.38-.66,.44-1,1.45-7.21,3.41-14.3,5.23-21.42,1.15-4.5,2.3-9,3.45-13.51,.07-.14,.19-.27,.2-.41,.11-1.73,1.17-1.95,2.62-1.8,1.19,.12,2.39,.05,3.59,.01,.71-.03,.81,.29,.64,.87-1.34,4.75-2.69,9.49-4.03,14.24-2,7.1-4,14.21-6,21.32-.96,3.4-1.92,6.8-2.9,10.2-.13,.45-.41,.66-.95,.67-.64,0-1.34-.29-1.93,.22-.92-.03-1.85-.17-2.74-.05-1.17,.15-1.48-.44-1.7-1.39-1.31-5.6-2.64-11.19-3.98-16.78-1.31-5.48-2.75-10.93-3.77-16.48-.22-1.21-.23-2.5-.88-3.92-.61,2.9-1.17,5.53-1.73,8.16Z"/>
      <path class="cls-1" d="M17.33,26.85c-3.98,1.94-5.87,5.49-6.83,9.49-1.27,5.29-1.05,10.61,1.39,15.58,2.46,5.02,6.64,7.91,12.14,8.75,2.97,.46,5.97,.56,8.94-.14,.57,.05,1.08-.24,1.62-.34,1.02-.19,1.35-.73,1.33-1.8-.08-3.63-.07-7.27,0-10.91,.02-1.15-.18-1.6-1.47-1.53-2.43,.12-4.87,0-7.31,.05-.74,.01-.97-.2-.95-.94,.02-.69,.24-1.43-.22-2.09,.39-.19,.28-.57,.23-.85-.22-1.24,.37-1.39,1.45-1.37,4.43,.06,8.86,.05,13.29,0,.87,0,1.14,.18,1.13,1.1-.04,6.98-.04,13.97,0,20.95,0,.77-.26,1.03-.98,1.3-.73,.27-1.68,.11-2.19,.91-2.59,.31-5.11,1.01-7.72,1.22-6.1,.47-12.02,.03-17.5-3.01-3.76-2.08-6.49-5.16-8.22-9.04-2.12-4.75-2.8-9.75-2.22-14.96,.54-4.79,2.14-9.1,5.19-12.85,.25-.31,.65-.59,.31-1.08h.08s.01-.09,.01-.09c.52,.39,.55-.04,.62-.38,2.18-1.43,4.15-3.16,6.56-4.24,2.65-1.18,5.37-1.99,8.25-2.39,2.74-.38,5.48-.27,8.2-.16,2.6,.11,5.14,.78,7.6,1.7,.65,.25,.63,.73,.49,1.24-.36,1.27-.8,2.52-1.13,3.79-.15,.6-.42,.34-.77,.29-.62-.09-1.15-.7-1.84-.35-.07-.21-.24-.27-.44-.33-1.89-.62-3.84-.83-5.81-.99-4.11-.34-8.01,.29-11.68,2.19-.58,.3-1.33,.47-1.54,1.26Z"/>
      <path class="cls-1" d="M363.32,18.27c.05-.1,.14-.2,.15-.31q.16-1.89,2.1-1.89c1.16,0,2.32,.02,3.47,0,.52-.01,.74,.16,.68,.68-.03,.28,0,.56,0,.84,0,13.17-.05,26.35,.05,39.52,.02,2.49,.17,4.99,.2,7.5,0,.34,.12,.68,.18,1.02-1.17,.4-2.44-.27-3.58,.36-.16-.02-.31-.06-.47-.07-1.86-.1-1.84-.1-1.91-2.03-.04-.98-.17-1.96-.28-3.25-.92,1.61-2.15,2.48-3.02,3.67-1.29,.25-2.3,1.06-3.39,1.71-1.76,.26-3.48,.64-5.29,.63-5.93-.04-10.83-3.91-12.89-9.31-1.47-3.84-1.71-7.77-1.18-11.8,.44-3.35,1.61-6.38,3.71-9.04,.23-.29,.57-.54,.32-.98,0,0-.02,.02-.02,.02,.44,.24,.47-.07,.5-.38,1.67-.69,2.89-2.1,4.58-2.79,4.31-1.75,8.52-1.82,12.68,.39,.12,.06,.21,0,.26-.13,1.01,.87,2.01,1.73,3.16,2.72,0-5.84,0-11.46,0-17.07Zm-14.48,20.33c-.99,0-1.48,.77-1.88,1.45-3.19,5.3-3.36,10.8-.8,16.38,.5,1.08,1.21,2.08,2.21,2.83,1.43,1.08,2.96,1.8,4.76,2.04,1.78,.24,3.41,.06,4.83-1.13,.43,.08,.76-.13,1.09-.36,2.11-1.44,3.5-3.4,4-5.91,.57-2.88,.22-5.8,.23-8.71,0-3.57-1.83-6.21-4.83-7.92-2.77-1.58-5.68-1.37-8.47,.11-.46,.25-1.18,.41-1.15,1.21Z"/>
      <path class="cls-1" d="M128.37,53.03c-.96-.31-.67,.45-.67,.85-.02,3.47-.08,6.95,.02,10.42,.04,1.25-.33,1.59-1.51,1.47-.54-.06-1.18-.29-1.68,.22-.72-.03-1.44-.13-2.15-.06-.88,.08-1.13-.18-1.13-1.1,.03-15.52,.03-31.03,.03-46.55,.05-.1,.14-.2,.15-.31q.16-1.89,2.11-1.89c1.04,0,2.08,.06,3.12-.02,.86-.07,1.05,.24,1.04,1.07-.03,8.91-.02,17.83-.02,26.74v1.21c1.23-.83,1.91-2,2.79-2.97,1.67-1.83,3.2-3.78,4.8-5.68,.46-.54,.91-1.09,1.38-1.62,.4-.45,.79-.88,1.51-.76,.56,.09,.78-.35,1.06-.77,.62-.92,1.38-1.5,2.65-1.41,1.99,.13,3.99,.03,6.01,.03,.11,.58-.32,.85-.63,1.17-2.21,2.29-4.52,4.51-6.61,6.9-1.59,1.82-3.45,3.39-4.93,5.32-.34,.45-.45,.7-.06,1.21,4.66,6.14,9.3,12.31,13.93,18.48,.13,.18,.19,.41,.31,.66-1.52,.28-3.03-.2-4.47,.28-.88-.01-1.76-.04-2.63-.03-.43,0-.76-.08-1.02-.46-1.08-1.55-2.17-3.1-3.27-4.63-2.58-3.58-5.17-7.15-7.76-10.73-1.51,1.22-2,1.83-2.39,2.94Z"/>
      <path class="cls-5" d="M88.29,35.74c3.15-2.54,6.49-4.47,10.76-4.6,3.98-.12,7.57,.66,10.45,3.42,2.12,2.02,3.34,4.67,4.04,7.55,.56,2.31,.46,4.64,.48,6.97,0,.62-.28,.81-.87,.86-.76,.05-1.57-.27-2.29,.23-.48-.03-.95-.08-1.43-.08-5.91,0-11.81,0-17.72,0-1.7,0-1.87,.26-1.28,1.96-.27,1.51,.39,2.82,1.05,4.06,1.76,3.29,4.62,4.9,8.29,5.36,3.92,.48,7.61-.26,11.23-1.66,.35,1.31,.69,2.62,1.05,3.92,.14,.5,0,.83-.5,1.01-.94,.33-1.87,.67-2.81,1-.5,.12-.99,.27-1.49,.36-3.79,.67-7.59,.94-11.37,.07-4.67-1.07-8.12-3.71-10.23-8.07-1.49-3.08-1.93-6.34-1.79-9.71,.16-3.85,.98-7.49,3.23-10.72,.26-.38,.88-.73,.56-1.39,0,0-.02,.02-.02,.02,.5,.19,.61-.14,.67-.52Zm5.61,2.43c-.36,.35-.89,.35-1.23,.81-1.13,1.53-1.79,3.26-2.35,5.05-.26,.83-.18,1.37,1.01,1.35,4.1-.07,8.21-.02,12.32-.04,.33,0,.72,.19,.98-.19,.85,.27,1.72,.18,2.59,.2,.36,0,.65-.04,.6-.5-.29-2.79-.92-5.41-3.27-7.31-2-1.61-4.29-1.94-6.68-1.55-1.51,.25-3.05,.74-3.97,2.19Z"/>
      <path class="cls-5" d="M53.27,35.74c3.15-2.54,6.49-4.47,10.76-4.6,3.98-.12,7.57,.66,10.45,3.42,2.12,2.02,3.34,4.67,4.04,7.55,.56,2.31,.46,4.64,.48,6.97,0,.62-.28,.81-.87,.86-.76,.05-1.57-.27-2.29,.23-.48-.03-.95-.08-1.43-.08-5.91,0-11.81,0-17.72,0-1.7,0-1.87,.26-1.28,1.96-.27,1.51,.39,2.82,1.05,4.06,1.76,3.29,4.62,4.9,8.29,5.36,3.92,.48,7.61-.26,11.23-1.66,.35,1.31,.69,2.62,1.05,3.92,.14,.5,0,.83-.5,1.01-.94,.33-1.87,.67-2.81,1-.5,.12-.99,.27-1.49,.36-3.79,.67-7.59,.94-11.37,.07-4.67-1.07-8.12-3.71-10.23-8.07-1.49-3.08-1.93-6.34-1.79-9.71,.16-3.85,.98-7.49,3.23-10.72,.26-.38,.88-.73,.56-1.39,0,0-.02,.02-.02,.02,.5,.19,.61-.14,.67-.52Zm16.35,9.41c.85,.27,1.72,.18,2.59,.2,.36,0,.65-.04,.6-.5-.29-2.79-.92-5.41-3.27-7.31-2-1.61-4.29-1.94-6.68-1.55-1.51,.25-3.05,.74-3.97,2.19-.36,.35-.89,.35-1.23,.81-1.13,1.53-1.79,3.26-2.35,5.05-.26,.83-.18,1.37,1.01,1.35,4.1-.07,8.21-.02,12.32-.04,.33,0,.72,.19,.98-.19Z"/>
      <path class="cls-6" d="M271.3,30.25c3.4,.17,6.85,.16,9.96,1.91,.37,.21,.7,.51,1.09,.69,1.23,.56,1.48,1.53,1.26,2.75-.21,1.16-.87,1.48-1.86,.8-1.25-.87-2.52-1.69-3.94-2.26-.63-.25-.9-.42-1.23,.48-.45,1.22-.26,2.02,.7,2.78,1.05,.83,1.82,1.92,2.63,2.97,.27,.35,.53,.67,.83,1,.99,1.08-.21,1.9-.45,2.83-.45,1.83-2.2,2.25-3.54,3.11-.2,.13-.42,.22-.61,.35-2.18,1.43-2.21,1.45-.77,3.68,.45,.7,.4,1.19-.1,1.79-.66,.79-1.02,.78-1.49-.07-.44-.78-1.01-1.5-1.37-2.31-.3-.7-.61-.5-1.05-.24-1.78,1.06-3.54,2.14-5.35,3.14-.52,.29-.3,.41-.11,.77,.93,1.8,2.37,3.18,3.77,4.57,.6,.59,.47,.98,.01,1.43-.4,.4-.71,.76-1.36,.1-1.29-1.29-2.62-2.52-3.54-4.13-.7-1.21-1.04-1.32-2.18-.68-.75,.42-1.53,.79-2.24,1.28-.47,.32-1.25,.44-.32,1.44,1.1,1.17,2.21,2.31,3.46,3.28,.76,.59,1.69,.94,2.56,1.38,.63,.32,.64,.57,.04,.98-.53,.36-1.03,1.23-1.54,1.07-1.05-.34-2.03-.98-2.95-1.62-2.72-1.91-4.69-4.5-6.03-7.49-1.38-3.07-1.78-6.31-1.32-9.71,.29-2.18,.93-4.22,1.86-6.11,1.08-2.18,2.57-4.19,4.63-5.59,.48-.32,.49-.8,.88-1.13,1.62-1.34,3.49-2.14,5.45-2.74,1.34-.42,2.74-.77,4.2-.5Zm1.84,16.75c.09-.07,.2-.19,.33-.27,1.58-.93,3.11-1.96,4.75-2.76,.99-.48,.8-1.24,.45-1.69-1.16-1.46-2.2-3.05-3.88-4.06-.37-.22-.24,.02-.37,.07-.76,.27-.67,1.14-1.21,1.62-.81,.72-1.76,1.31-2.42,2.21-.21,.28-.39,.31-.16,.7,.72,1.2,1.36,2.46,2.06,3.67,.1,.17,.06,.51,.46,.5Zm-8.62,5.01c1.89-1.12,3.74-2.2,5.58-3.3,.32-.19,.9-.24,.54-.87-.71-1.21-1.45-2.4-2.11-3.63-.21-.39-.36-.55-.75-.31-1.41,.89-3,1.25-4.62,1.42-1.01,.1-1.09,.66-.82,1.36,.68,1.77,1.2,3.61,2.19,5.33Zm-7.59-3.65c-.02,1.79,.41,3.5,.77,5.23,.09,.41-.38,1.15,.58,1.11,.51-.02,1.01,.33,1.54-.07,.56-.42,1.18-.77,1.82-1.06,.6-.28,.68-.54,.42-1.19-.7-1.68-1.65-3.3-1.93-5.12-.22-1.42-1.01-1.85-2.25-1.92-.8-.05-1.47-.09-.99,1.12,.22,.55,.04,1.26,.04,1.89Zm6.38-12.26c-1.14,2.03-1.89,3.99-1.53,6.24,.07,.44,.32,.65,.73,.59,.96-.14,1.93-.25,2.86-.5,.99-.26,1.24-.98,.72-1.84-.88-1.46-1.8-2.9-2.79-4.49Zm5.77,3.89c1.15-.83,2.22-1.75,3.22-2.78,.35-.36,.42-.46-.01-.77-1.5-1.06-3.27-1.42-4.96-1.97-.37-.12-.81-.01-1.03,.28-.24,.32,.1,.59,.27,.88,.85,1.44,1.67,2.9,2.51,4.35Zm1.58-7.08c.81,.63,1.73,.64,2.55,.91,.48,.16,.63-.26,.72-.57,.13-.47-.21-.57-.61-.62-.88-.13-1.69,.28-2.67,.28Zm-11.52,7.94c-.11-.02-.21-.05-.32-.07-.25,.47-.47,.96-.75,1.42-.16,.27-.52,.5-.3,.82,.23,.35,.66,.15,.99,.16,.53,.01,.37-.42,.38-.7,.02-.54,0-1.08,0-1.62Z"/>
      <path class="cls-1" d="M166.08,34.67c.8-.26,1.37-.89,2.04-1.35,2.09-1.45,4.39-2.09,6.93-2.15,2.87-.06,5.63,.22,8.27,1.44,.92,.42,1.15,.87,.73,1.81-.43,.95-.69,1.98-1.05,2.96-.14,.38-.28,.71-.81,.26-.47-.4-1.06-.74-1.77-.53-.63-.63-1.48-.72-2.28-.85-2.56-.45-5.07-.54-6.88,1.85-1.25,1.1-1.26,3.48-.04,4.84,1.33,1.49,3.15,2.15,4.93,2.84,2.19,.85,4.36,1.75,6.16,3.26,1.93,1.62,3.04,3.73,3.18,6.31,.16,3.04-.53,5.76-2.76,7.95-1.21,1.19-2.8,1.81-4.21,2.7-.27,.02-.55,.02-.82,.07-4.52,.98-8.92,.72-13.25-1.08-1.51-.63-1.4-.75-1.01-2.41,.72-.99,.77-2.24,1.33-3.38,2.35,1.58,4.98,2.41,7.78,2.51,.92,.03,2.03,.32,2.88-.48,3.15-.56,4.73-3.64,3.33-6.46-.65-1.31-1.78-2.12-3.02-2.76-1.99-1.04-4.17-1.65-6.17-2.68-4.72-2.44-6.6-6.93-4.9-11.85,.35-1.01,1.17-1.77,1.39-2.82Z"/>
      <path class="cls-5" d="M323.74,18.27c.05-.1,.14-.2,.15-.31q.16-1.89,2.11-1.89c1.04,0,2.08,.06,3.12-.02,.86-.07,1.05,.23,1.05,1.06-.03,7.79-.02,15.59-.02,23.38s-.02,16.06,.02,24.1c0,.97-.28,1.22-1.2,1.16-.65-.04-1.34-.2-1.98,.14-.72,0-1.45-.06-2.16,.02-.91,.1-1.12-.21-1.12-1.11,.03-15.51,.02-31.02,.03-46.54Z"/>
      <path class="cls-1" d="M300.47,34.1c.31-.34,.27-.83,.13-1.13-.56-1.22,.23-1.08,.96-1.07,1.23,.01,2.47,.05,3.7-.02,.78-.04,.96,.25,.9,.95-.06,.71,0,1.43-.01,2.15,0,.32,.06,.55,.45,.52,.22,.46-.46,.92-.02,1.41,.72-.82,1.15-1.65,1.25-2.37,0,0,0,0,0,0,.32,.1,.46-.06,.51-.34,1.1-.52,1.98-1.39,3.01-2.01,1.8-1.08,3.82-1.07,5.84-1.01,.47,.02,.49,.28,.49,.63,0,1.83,0,3.67,0,5.45-1.19-.01-2.31-.34-3.39,.17-1.51,.14-2.78,.73-3.76,1.92-1.76,1.01-2.39,2.78-2.88,4.55-.37,1.35-.55,2.76-.54,4.2,.04,5.51,0,11.03,.04,16.54,0,.92-.25,1.14-1.13,1.11-.75-.03-1.57-.29-2.29,.22-.6-.03-1.2-.13-1.79-.06-.99,.12-1.25-.21-1.25-1.22-.06-10.2,.27-20.4-.21-30.6Z"/>
      <path class="cls-2" d="M8.73,25.31c.35,.49-.05,.77-.31,1.08-3.05,3.75-4.65,8.06-5.19,12.85-.58,5.2,.1,10.2,2.22,14.96,1.73,3.88,4.46,6.97,8.22,9.04,5.48,3.03,11.4,3.48,17.5,3.01,2.61-.2,5.13-.91,7.72-1.22,.2,.76-.21,.98-.87,1.22-5.68,2.02-11.57,2.53-17.5,2.08-5.53-.42-10.52-2.44-14.44-6.54-3.06-3.2-4.7-7.13-5.56-11.44C-.01,47.63-.11,44.89,.11,42.17c.4-5.05,2.01-9.67,5.33-13.64,1-1.2,2.15-2.2,3.29-3.22Z"/>
      <path class="cls-2" d="M201.64,20.67c3.75,14.81,7.52,29.62,11.23,44.44,.17,.69,.43,.81,1.02,.8,1.08,0,2.15,.04,3.23,.07-.18,1.79-.31,1.87-2.01,1.92-1.58,.05-3.18-.22-4.75,.17-.49,.12-.34-.28-.4-.52-1.52-6.01-3.04-12.02-4.56-18.03-2.35-9.3-4.69-18.6-7.08-27.89-.23-.9,.02-1.05,.8-1.01,.84,.04,1.68,.03,2.52,.04Z"/>
      <path class="cls-6" d="M273.03,64.04c-.7-.39-.93-.83-.42-1.62,.53-.83,1.12-.58,1.69-.25,1.4,.8,2.89,1.02,4.47,.95,.71-.03,.79-.35,.46-.89-.76-1.27-1.54-2.54-2.3-3.81-.37-.62-.04-1.87,.59-2.26,.59-.36,.81,.06,1.05,.49,.78,1.4,1.6,2.77,2.36,4.18,.18,.33,.34,.72,.68,.72,.41,0,.58-.44,.77-.78,1.09-1.93,1.46-3.97,1.05-6.17-.09-.51-.08-.48-.6-.51-1.24-.08-2.28,.53-3.44,.69-.22,.03-.4,.21-.63,0-.32-.3,.04-.51,.12-.71,.76-1.89,2.4-2.13,4.15-2.13,0-1.69-2.07-3.46,.21-5.08,1.01,.83,1.34,2.06,1.49,3.21,.17,1.27,.71,1.97,1.89,2.19,.67,.12,1.27,.6,1.43-.88,.25-2.31,.1-4.54-.26-6.78-.16-.96-.66-1.87-1.07-2.78-.22-.49-.5-.02-.73,.07-.7,.3-.82-.12-.68-.61,.35-1.15,.76-2.29,1.2-3.41,.15-.39,.35-.67,.78-.06,2.02,2.85,3.32,5.93,3.52,9.46,.25,4.3-.83,8.22-3.16,11.81-.53,.82-1.3,1.49-1.8,2.32-1.21,2.02-3.41,2.86-5.04,4.37-.87,.81-1.94,1-2.99,.63-.48-.17-.72,.13-1.01,.19-2.44,.55-4.88,.51-7.34,.21-.36-.04-.28-.29-.41-.42-.23-.25,.05-.41,.21-.57,.98-.96,2.05-1.72,3.53-1.38,.28,.06,.32-.14,.43-.27,.05-.12,.07-.24-.08-.29-.02,0-.09,.11-.13,.18Zm12.61-6.83c.21-.73,.96-1.05,1.16-1.82,.15-.57,.03-.93-.35-1.02-.47-.1-.83,.51-.75,.8,.2,.72-.26,1.35-.06,2.04Z"/>
      <path class="cls-3" d="M121.28,18.27c0,15.52,0,31.03-.03,46.55,0,.92,.24,1.18,1.13,1.1,.71-.07,1.43,.03,2.15,.06q.09,1.91-1.8,1.91c-1.24,0-2.48-.02-3.72,0-.51,.01-.75-.14-.69-.68,.03-.28,0-.56,0-.84,0-15.54,.02-31.09-.03-46.63,0-1.25,.31-1.72,1.55-1.52,.47,.08,.96,.03,1.44,.04Z"/>
      <path class="cls-3" d="M323.74,18.27c0,15.51,0,31.02-.03,46.54,0,.9,.21,1.21,1.12,1.11,.71-.08,1.44-.02,2.16-.02q.09,1.99-1.84,1.99c-1.12,0-2.24-.06-3.35,.02-.88,.06-1.03-.28-1.03-1.08,.03-8.71,.02-17.41,.02-26.12,0-7.07,.03-14.14-.03-21.2,0-1.06,.26-1.44,1.31-1.29,.55,.08,1.12,.04,1.67,.05Z"/>
      <path class="cls-2" d="M228.23,35.52c.56-2.63,1.11-5.25,1.73-8.16,.65,1.42,.66,2.71,.88,3.92,1.03,5.55,2.46,11,3.77,16.48,1.34,5.59,2.67,11.18,3.98,16.78,.22,.95,.54,1.54,1.7,1.39,.9-.12,1.83,.02,2.74,.05-.07,.34-.16,.67-.2,1.02-.09,.64-.38,.93-1.09,.91-1.63-.05-3.28-.08-4.91,.01-.8,.05-1.04-.36-1.18-.94-1.3-5.33-2.6-10.66-3.85-16.01-1.2-5.15-2.56-10.26-3.57-15.46Z"/>
      <path class="cls-2" d="M52.62,36.23c.32,.66-.3,1.01-.56,1.39-2.25,3.23-3.07,6.87-3.23,10.72-.14,3.37,.3,6.63,1.79,9.71,2.11,4.36,5.56,7,10.23,8.07,3.79,.87,7.59,.6,11.37-.07,.5-.09,1-.24,1.49-.36,.56,.64,.15,.98-.41,1.21-1.78,.73-3.64,1.13-5.53,1.46-2.25,.39-4.52,.27-6.78,.23-6.97-.13-12.99-4.54-14.58-11.61-1.24-5.5-.88-10.95,1.88-16.05,.98-1.8,2.39-3.24,3.87-4.61,.1-.09,.3-.07,.45-.09Z"/>
      <path class="cls-2" d="M87.64,36.23c.32,.66-.3,1.01-.56,1.39-2.25,3.23-3.07,6.87-3.23,10.72-.14,3.37,.3,6.63,1.79,9.71,2.11,4.36,5.56,7,10.23,8.07,3.79,.87,7.59,.6,11.37-.07,.5-.09,1-.24,1.49-.36,.56,.64,.15,.98-.41,1.21-1.78,.73-3.64,1.13-5.53,1.46-2.25,.39-4.52,.27-6.78,.23-6.97-.13-12.99-4.54-14.58-11.61-1.24-5.5-.88-10.95,1.88-16.05,.98-1.8,2.39-3.24,3.87-4.61,.1-.09,.3-.07,.45-.09Z"/>
      <path class="cls-2" d="M342.16,35.51c.24,.44-.09,.69-.32,.98-2.11,2.66-3.28,5.7-3.71,9.04-.53,4.03-.29,7.96,1.18,11.8,2.06,5.4,6.96,9.27,12.89,9.31,1.81,.01,3.53-.38,5.29-.63-1.67,1.56-3.77,2.29-5.92,2.53-2.54,.29-5.11,.25-7.61-.79-3.2-1.33-5.47-3.57-7.09-6.54-1.66-3.04-2.22-6.3-2.22-9.76,0-3.61,.5-7.06,2.23-10.23,1.27-2.32,2.85-4.42,5.27-5.71Z"/>
      <path class="cls-3" d="M300.47,34.1c.48,10.2,.14,20.4,.21,30.6,0,1.01,.27,1.34,1.25,1.22,.58-.07,1.19,.04,1.79,.06q.09,1.91-1.8,1.91c-1.12,0-2.24-.05-3.35,.02-.83,.05-1.08-.18-1.07-1.04,.05-3.91,.02-7.83,.02-11.74,0-3.24,.12-6.48-.03-9.71-.15-3.3-.04-6.61-.28-9.89-.11-1.5,.35-1.58,1.47-1.46,.59,.06,1.2,.03,1.79,.04Z"/>
      <path class="cls-2" d="M166.08,34.67c-.23,1.06-1.05,1.81-1.39,2.82-1.69,4.92,.18,9.41,4.9,11.85,2,1.03,4.18,1.64,6.17,2.68,1.24,.65,2.37,1.46,3.02,2.76,1.4,2.83-.18,5.9-3.33,6.46,1.17-3.05,.23-5.38-2.6-6.88-1.9-1.01-3.98-1.6-5.88-2.58-2.43-1.26-4.54-2.88-5.64-5.55-1.45-3.5,.01-8.43,3.19-10.55,.52-.35,1.04-.69,1.56-1.03Z"/>
      <path class="cls-5" d="M156.7,20.19c.15-.13,.44-.28,.42-.38-.26-1.51,.79-1.64,1.82-1.73,1.45-.14,2.91-.22,4.36-.32,.57-.04,.66,.17,.5,.71-1.57,5.31-3.52,10.46-6.03,15.4-.26,.5-.53,.75-1.08,.68-.63-.09-1.15,.17-1.65,.51-.27-.03-.56-.13-.82-.09-.93,.14-1.2-.06-.82-1.04,1.03-2.68,1.72-5.48,2.37-8.27,.42-1.79,1.05-3.57,.93-5.46Z"/>
      <path class="cls-2" d="M251.78,20.67c-1.15,4.5-2.3,9-3.45,13.51-1.82,7.12-3.78,14.21-5.23,21.42-.07,.34-.22,.66-.44,1-.56-1.77-.97-3.55-.99-5.41,.11-2.01,.8-3.89,1.29-5.81,2-7.89,4.08-15.77,6.1-23.65,.2-.79,.5-1.25,1.41-1.09,.43,.08,.88,.03,1.31,.05Z"/>
      <path class="cls-2" d="M226.27,20.67c-1.19,4.61-2.33,9.24-3.57,13.84-1.92,7.08-3.81,14.17-5.44,21.32-.06,.27,.16,.76-.35,.74-.47-.02-.27-.5-.32-.77-.29-1.4-.55-2.82-.82-4.23,1.96-7.45,3.91-14.9,5.87-22.35,.65-2.45,1.43-4.86,1.94-7.34,.23-1.1,.65-1.39,1.63-1.26,.35,.05,.72,.03,1.08,.04Z"/>
      <path class="cls-2" d="M128.37,53.03c.39-1.11,.88-1.72,2.39-2.94,2.59,3.58,5.18,7.15,7.76,10.73,1.1,1.53,2.19,3.08,3.27,4.63,.26,.38,.59,.47,1.02,.46,.88-.02,1.76,.02,2.63,.03,.54,.55,1.02,1.14,1.4,1.96-2.52,0-4.9,0-7.29,0-.46,0-.65-.24-.9-.59-3.41-4.77-6.85-9.52-10.29-14.28Z"/>
      <path class="cls-3" d="M25.97,42.98c.45,.65,.24,1.39,.22,2.09-.02,.74,.21,.95,.95,.94,2.44-.04,4.88,.07,7.31-.05,1.29-.07,1.49,.39,1.47,1.53-.07,3.63-.07,7.27,0,10.91,.02,1.07-.31,1.61-1.33,1.8-.54,.1-1.05,.38-1.62,.34-.01-3.83-.05-7.67-.01-11.5,0-.82-.18-1.09-1.04-1.07-2.63,.06-5.27,0-7.91,.04-.76,.01-1-.22-.92-.95,.05-.43,0-.88,0-1.32q0-2.89,2.87-2.76Z"/>
      <path class="cls-6" d="M265.2,66.17c3.18-2.93,6.2-5.94,8.71-9.47,1.27-1.78,2.66-3.5,3.75-5.38,1.63-2.83,3.19-5.71,4.5-8.72,1.25-2.9,2.04-5.92,2.81-8.95,.32-1.27,.44-2.65,.33-4.01-.03-.33-.21-.8,.48-.86,.64-.06,.72,.32,.83,.74,.26,1.02,.26,2.09,.08,3.08-.74,4.09-1.93,8.06-3.69,11.86-1.24,2.68-2.54,5.33-4.1,7.81-2.37,3.78-5.01,7.38-8.05,10.68-1.1,1.2-2.36,2.22-3.45,3.42-.66,.73-1.49,.22-2.19-.19Z"/>
      <path class="cls-3" d="M285.24,13.58c.62,.13,1.16,.24,1.69,.35,.26,.05,.48,.2,.46,.46-.02,.35-.37,.29-.56,.23-1.72-.49-3.32-.1-4.91,.57-.42,.18-.63-.29-.71-.69-.43-2.19,.13-3.26,2.27-4.18,1.76-.75,2.79-1.95,3.32-3.88,.66-2.38,2.02-4.45,3.97-6.1,.89-.75,1.34-.19,1.61,.45,.93,2.23,1.15,4.64,.71,6.95-.4,2.15,.2,3.9,1.38,5.48,.47,.63,.48,1.14,.39,1.75-.09,.61-.38,1.18-.5,1.8-.19,.96-1,1.21-1.72,.49-.91-.91-1.8-1.76-3.15-1.88-.29-.03-.7-.01-.59-.52,.1-.44,.49-.61,.83-.46,1.23,.56,1.39-.12,1.64-1.11,.78-3.15,.97-6.35,.84-9.57-.03-.83-.44-1.64-.7-2.46-.16-.5-.52-.07-.6,0-.79,.61-1.37,1.39-1.88,2.26-1.57,2.68-2.53,5.6-3.25,8.59-.11,.47-.33,.87-.55,1.44Zm.34-3.59c-.66,.35-1.12,.62-1.61,.85-1.11,.51-1.33,1.53-1.43,2.58,0,.09-.24,.56,.19,.48,.74-.13,1.72,0,2.01-.89,.3-.93,.4-1.93,.84-3.02Zm6.89,1.68c.09,1.21-.16,2.11-.38,3.02-.13,.53,.66,1.69,1.2,1.8,.18,.04,.36,.03,.35-.15-.02-.98,.77-1.97-.11-2.95-.38-.42-.61-.97-1.07-1.73Z"/>
      <path class="cls-3" d="M363.32,18.27v17.07c-1.15-.99-2.15-1.86-3.16-2.72-.01-4.54-.01-9.07-.05-13.61,0-.65,.22-.83,.82-.79,.79,.05,1.59,.03,2.38,.04Z"/>
      <path class="cls-2" d="M163.46,62.61c-.39,1.66-.5,1.78,1.01,2.41,4.33,1.79,8.72,2.05,13.25,1.08,.27-.06,.54-.05,.82-.07-1.26,1.36-2.98,1.94-4.66,2.24-4.5,.81-8.95,.61-13.21-1.35-.75-.35-.98-.71-.63-1.55,.53-1.25,.89-2.58,1.35-3.97,.7,.41,1.38,.81,2.07,1.22Z"/>
      <path class="cls-2" d="M156.7,20.19c.13,1.89-.51,3.67-.93,5.46-.65,2.79-1.34,5.59-2.37,8.27-.38,.99-.11,1.19,.82,1.04,.26-.04,.55,.06,.82,.09-.17,1.92-1.77,1.59-2.97,1.88-.15,.04-.32,0-.48,0-1.5,.04-1.46,.05-.98-1.5,1.47-4.71,2.78-9.47,3.45-14.38,.05-.36,.18-.69,.54-.65,.73,.08,1.37-.4,2.09-.23Z"/>
      <path class="cls-3" d="M55.4,52.03c-.58-1.7-.41-1.96,1.28-1.96,5.91,0,11.81,0,17.72,0,.48,0,.95,.05,1.43,.08q.09,1.91-1.78,1.91c-6.22-.01-12.43-.02-18.65-.03Z"/>
      <path class="cls-3" d="M90.43,52.03c-.58-1.7-.41-1.96,1.28-1.96,5.91,0,11.81,0,17.72,0,.48,0,.95,.05,1.43,.08q.09,1.91-1.78,1.91c-6.22-.01-12.43-.02-18.65-.03Z"/>
      <path class="cls-2" d="M17.33,26.85c.21-.79,.96-.96,1.54-1.26,3.67-1.9,7.57-2.53,11.68-2.19,1.98,.16,3.92,.37,5.81,.99,.2,.07,.37,.12,.44,.33,.07,.81-.44,1.49-.54,2.27-.07,.63-.46,.31-.79,.18-2.27-.84-4.6-1.55-7.01-1.71-3.38-.22-6.78-.12-10.05,.97-.37,.12-.72,.27-1.08,.4Z"/>
      <path class="cls-2" d="M360.88,64.3c.87-1.19,2.11-2.06,3.02-3.67,.12,1.29,.25,2.27,.28,3.25,.07,1.93,.05,1.93,1.91,2.03,.16,0,.31,.05,.47,.07,.06,.61,.11,1.22,.17,1.83-.67,.03-1.35,.06-2.02,.07-.96,.01-1.92-.02-2.87,.01-.71,.03-1.04-.22-1-.97,.05-.88,.03-1.76,.04-2.63Z"/>
      <path class="cls-2" d="M171.27,38.11c1.81-2.4,4.32-2.3,6.88-1.85,.79,.14,1.65,.22,2.28,.85-.26,.81-.49,1.63-.8,2.42-.07,.19-.09,.73-.61,.4-2.37-1.49-5-1.92-7.75-1.83Z"/>
      <path class="cls-3" d="M285.2,25.1c.62-2.67,1.25-5.35,1.86-8.02,.23-.99,.4-1.99,.67-2.97,.08-.28,.16-.79,.68-.64,.43,.13,.28,.57,.22,.82-.93,3.66-1.67,7.36-2.8,10.97-.07,.21,.09,.69-.35,.61-.44-.08-.35-.44-.27-.76Z"/>
      <path class="cls-3" d="M288.4,7.03c.01-1.16,.53-1.75,1.55-1.75,1.02,0,1.58,.52,1.56,1.47-.01,.84-.86,1.76-1.63,1.63-.73-.12-1.63-.2-1.49-1.35Zm2.29,.13c-.16-.66-.16-1.27-.84-1.12-.24,.05-.82,.05-.66,.58,.14,.45,.25,1.05,.89,1.01,.32-.02,.56-.31,.6-.48Z"/>
      <path class="cls-3" d="M284.59,21.83c-.57,0-.53-.29-.47-.58,.43-1.81,.86-3.63,1.31-5.43,.08-.33,.23-.79,.68-.64,.44,.15,.26,.5,.15,.88-.45,1.65-.83,3.32-1.24,4.98-.08,.33-.21,.66-.44,.79Z"/>
      <path class="cls-3" d="M289.88,16.46c-.22,1.61-.88,3.09-1.05,4.68-.02,.15-.34,.36-.53,.37-.23,0-.43-.24-.37-.51,.38-1.57,.78-3.14,1.2-4.71,.07-.25,.25-.54,.61-.37,.27,.12,.28,.34,.14,.55Z"/>
      <path class="cls-2" d="M310.52,39.36c.97-1.19,2.25-1.79,3.76-1.92v1.92h-3.76Z"/>
      <path class="cls-3" d="M290.07,20.63c.17-.97,.32-1.95,.53-2.91,.06-.29,.3-.61,.63-.54,.31,.06,.34,.43,.28,.7-.18,.78-.38,1.55-.58,2.32-.13,.49-.61,.22-.88,.42l.02,.02Z"/>
      <path class="cls-3" d="M290.04,20.61c.27,.42,1.16,.24,1,1.08-.08,.45-.34,.72-.73,.85-.43,.14-.75-.09-1.04-.42-.36-.41,.08-.66,.19-.94,.08-.22,.39-.37,.6-.54,0,0-.02-.02-.02-.02Z"/>
      <path class="cls-3" d="M284.36,16.18c-.13,.49-.25,1.05-.42,1.6-.08,.25-.2,.54-.57,.43-.32-.09-.26-.38-.22-.58,.11-.57,.27-1.12,.42-1.68,.06-.24-.02-.61,.41-.58,.53,.03,.28,.46,.39,.81Z"/>
      <path class="cls-3" d="M285.04,23.03c-.25,.33-.22,1-.86,.94-.52-.05-.83-.43-.81-.99,.01-.61,.42-.67,.9-.67,.47,0,.76,.17,.77,.72Z"/>
      <path class="cls-3" d="M287.34,22.68c-.06-.51,.06-.91,.78-.85,.39,.03,.86,.17,.7,.55-.16,.37,.02,1.21-.78,1.04-.17-.04-1.04,.12-.7-.73Z"/>
      <path class="cls-3" d="M283.19,20.33c-.3-.3-1.07-.04-.85-.61,.14-.35,0-1.18,.74-1.03,.14,.03,1-.28,.75,.52-.13,.42-.06,.97-.64,1.11Z"/>
      <path class="cls-4" d="M307.83,34.54c-.1,.72-.53,1.55-1.25,2.37-.45-.49,.23-.95,.02-1.41,.26-.51,.76-.73,1.23-.97Z"/>
      <path class="cls-2" d="M53.27,35.74c-.06,.38-.17,.7-.67,.52,.09-.35,.31-.51,.67-.52Z"/>
      <path class="cls-2" d="M88.29,35.74c-.06,.38-.17,.7-.67,.52,.09-.35,.31-.51,.67-.52Z"/>
      <path class="cls-4" d="M308.33,34.21c-.05,.29-.19,.45-.51,.34,.05-.3,.36-.19,.51-.34Z"/>
      <path class="cls-2" d="M9.44,24.84c-.07,.35-.1,.77-.62,.38,.21-.13,.42-.25,.62-.38Z"/>
      <path class="cls-2" d="M342.64,35.15c-.02,.31-.05,.62-.5,.38,.02-.31,.36-.22,.5-.38Z"/>
      <path class="cls-2" d="M357.97,60.18c1.76-2.48,2.31-5.27,2.16-8.26-.11-2.32,.21-4.66-.47-6.96-1.06-3.59-4.24-6.52-8.24-6.55-.86,0-1.75-.21-2.58,.2-.03-.79,.69-.96,1.15-1.21,2.79-1.48,5.7-1.69,8.47-.11,3,1.71,4.83,4.35,4.83,7.92,0,2.9,.35,5.83-.23,8.71-.5,2.51-1.89,4.46-4,5.91-.33,.23-.66,.43-1.09,.36Z"/>
      <path class="cls-2" d="M104.65,45.14c-.36-.97-.64-1.96-1.04-2.93-1.44-3.44-5.86-4.94-8.98-4.09-.23,.06-.48,.03-.72,.04,.92-1.45,2.45-1.94,3.97-2.19,2.39-.39,4.68-.06,6.68,1.55,2.35,1.9,2.98,4.51,3.27,7.31,.05,.47-.24,.51-.6,.5-.87-.01-1.74,.07-2.59-.2Z"/>
      <path class="cls-2" d="M69.62,45.14c-.36-.97-.64-1.96-1.04-2.93-1.44-3.44-5.86-4.94-8.98-4.09-.23,.06-.48,.03-.72,.04,.92-1.45,2.45-1.94,3.97-2.19,2.39-.39,4.68-.06,6.68,1.55,2.35,1.9,2.98,4.51,3.27,7.31,.05,.47-.24,.51-.6,.5-.87-.01-1.74,.07-2.59-.2Z"/>
    </g>
  </g>
</svg>